<?xml version="1.0" standalone="no"?>
<!DOCTYPE svg PUBLIC "-//W3C//DTD SVG 20010904//EN"
 "http://www.w3.org/TR/2001/REC-SVG-20010904/DTD/svg10.dtd">
<svg version="1.0" xmlns="http://www.w3.org/2000/svg"
 width="512.000000pt" height="512.000000pt" viewBox="0 0 512.000000 512.000000"
 preserveAspectRatio="xMidYMid meet">
<metadata>
Created by potrace 1.13, written by Peter Selinger 2001-2015
</metadata>
<g transform="translate(0.000000,512.000000) scale(0.100000,-0.100000)"
fill="#000000" stroke="none">
<path d="M2286 4548 c-15 -40 -52 -144 -84 -231 l-57 -158 -110 -37 c-60 -20
-156 -59 -212 -87 l-103 -52 -221 105 -220 106 -176 -177 -177 -176 106 -220
105 -221 -52 -103 c-28 -56 -67 -152 -87 -212 l-37 -110 -158 -57 c-87 -32
-191 -69 -230 -84 l-73 -26 0 -248 0 -248 73 -26 c39 -15 143 -52 230 -84
l158 -57 37 -110 c20 -60 59 -156 87 -212 l52 -103 -105 -221 -106 -220 177
-176 176 -177 220 106 221 105 103 -52 c56 -28 152 -67 212 -87 l110 -37 57
-158 c32 -87 69 -191 84 -230 l26 -73 248 0 248 0 26 73 c15 39 52 143 84 230
l57 158 110 37 c60 20 156 59 212 87 l103 52 221 -105 220 -106 176 177 177
176 -106 220 -105 221 52 103 c28 56 67 152 87 212 l37 110 158 57 c87 32 191
69 231 84 l72 26 0 248 0 248 -72 26 c-40 15 -144 52 -231 84 l-158 57 -37
110 c-20 60 -59 156 -87 212 l-52 103 105 221 106 220 -177 176 -176 177 -220
-106 -221 -105 -103 52 c-56 28 -152 67 -212 87 l-110 37 -57 158 c-32 87 -69
191 -84 231 l-26 72 -248 0 -248 0 -26 -72z m441 -1184 c318 -65 572 -319 637
-637 44 -211 2 -434 -116 -615 -154 -235 -407 -372 -688 -372 -281 0 -534 137
-688 372 -118 181 -160 404 -116 615 65 316 318 570 634 638 89 18 245 18 337
-1z"/>
</g>
</svg>
