<?xml version="1.0" standalone="no"?>
<!DOCTYPE svg PUBLIC "-//W3C//DTD SVG 20010904//EN"
 "http://www.w3.org/TR/2001/REC-SVG-20010904/DTD/svg10.dtd">
<svg version="1.0" xmlns="http://www.w3.org/2000/svg"
 width="626.000000pt" height="626.000000pt" viewBox="0 0 626.000000 626.000000"
 preserveAspectRatio="xMidYMid meet">
<metadata>
Created by potrace 1.13, written by Peter Selinger 2001-2015
</metadata>
<g transform="translate(0.000000,626.000000) scale(0.100000,-0.100000)"
fill="#000000" stroke="none">
<path d="M2139 5269 c-963 -965 -986 -989 -950 -989 20 0 272 0 561 0 289 0
531 -4 538 -8 10 -7 12 -243 10 -1148 l-3 -1139 -570 -5 -570 -5 987 -986 988
-985 989 988 c544 543 986 988 982 988 -3 0 -260 1 -571 3 l-565 2 -3 1139
c-2 905 0 1141 10 1148 7 4 261 8 563 8 303 0 555 0 561 0 6 0 -434 446 -979
990 -545 545 -991 989 -991 989 -1 -1 -445 -447 -987 -990z m1741 -39 c407
-407 740 -744 740 -750 0 -7 -149 -10 -430 -10 l-430 0 0 -1340 0 -1340 430 0
c262 0 430 -4 430 -9 0 -12 -1479 -1491 -1490 -1491 -12 0 -1490 1479 -1490
1491 0 5 171 9 430 9 l430 0 0 1340 0 1340 -428 0 c-236 0 -431 3 -434 6 -7 6
1480 1494 1493 1494 4 0 341 -333 749 -740z"/>
</g>
</svg>
