<?xml version="1.0" standalone="no"?>
<!DOCTYPE svg PUBLIC "-//W3C//DTD SVG 20010904//EN"
 "http://www.w3.org/TR/2001/REC-SVG-20010904/DTD/svg10.dtd">
<svg version="1.0" xmlns="http://www.w3.org/2000/svg"
 width="128.000000pt" height="128.000000pt" viewBox="0 0 128.000000 128.000000"
 preserveAspectRatio="xMidYMid meet">
<metadata>
Created by potrace 1.13, written by Peter Selinger 2001-2015
</metadata>
<g transform="translate(0.000000,128.000000) scale(0.100000,-0.100000)"
fill="#000000" stroke="none">
<path d="M868 1139 c-10 -5 -18 -20 -18 -33 0 -30 -30 -56 -63 -56 -34 0 -48
-41 -23 -69 22 -25 20 -68 -4 -81 -29 -16 -7 -60 30 -60 33 0 60 -28 60 -63 0
-34 41 -48 69 -23 23 21 67 21 80 -1 8 -15 13 -15 36 -5 21 10 26 18 21 34 -7
30 20 58 56 58 39 0 55 37 27 62 -24 21 -24 60 0 82 28 25 9 66 -29 66 -33 0
-64 32 -56 58 5 14 -1 22 -20 31 -23 10 -28 9 -41 -9 -19 -26 -64 -26 -81 0
-14 23 -20 24 -44 9z m117 -119 c34 -13 59 -69 46 -104 -22 -57 -94 -74 -136
-31 -42 41 -32 105 20 133 25 14 37 14 70 2z"/>
<path d="M445 832 c-12 -30 -25 -43 -53 -54 -33 -13 -41 -13 -77 3 l-40 18
-33 -33 -34 -33 20 -40 21 -39 -22 -39 c-15 -26 -33 -42 -57 -50 -34 -11 -35
-14 -35 -60 0 -46 1 -49 35 -60 25 -8 41 -23 56 -51 21 -39 21 -39 2 -78 l-20
-38 32 -33 32 -33 41 17 c38 16 44 16 79 2 30 -13 41 -25 51 -56 13 -39 15
-40 62 -40 47 0 49 1 62 40 10 31 21 43 51 56 34 14 40 14 77 -2 l40 -18 32
31 31 30 -17 42 c-17 38 -17 43 -1 80 12 30 25 43 51 51 33 11 34 14 34 61 0
46 -1 49 -34 58 -26 7 -37 19 -52 53 -18 43 -18 45 1 82 l19 38 -33 32 -34 33
-38 -20 c-37 -18 -41 -18 -78 -3 -30 13 -43 26 -51 52 -11 31 -15 34 -58 37
-46 3 -47 2 -62 -36z m158 -221 c41 -39 42 -41 42 -105 0 -63 -2 -67 -38 -103
-36 -36 -40 -38 -103 -38 -64 0 -66 1 -105 42 -35 38 -39 47 -39 95 0 92 56
148 148 148 48 0 57 -4 95 -39z"/>
</g>
</svg>
