<?xml version="1.0" standalone="no"?>
<!DOCTYPE svg PUBLIC "-//W3C//DTD SVG 20010904//EN"
 "http://www.w3.org/TR/2001/REC-SVG-20010904/DTD/svg10.dtd">
<svg version="1.0" xmlns="http://www.w3.org/2000/svg"
 width="59.000000pt" height="48.000000pt" viewBox="0 0 59.000000 48.000000"
 preserveAspectRatio="xMidYMid meet">
<metadata>
Created by potrace 1.13, written by Peter Selinger 2001-2015
</metadata>
<g transform="translate(0.000000,48.000000) scale(0.100000,-0.100000)"
fill="#000000" stroke="none">
<path d="M100 372 c-41 -46 -76 -86 -77 -90 -1 -4 33 -45 77 -92 l79 -85 1 38
c0 37 1 37 40 37 l40 0 0 -45 0 -45 74 0 75 0 3 -41 3 -41 20 23 c15 18 15 20
3 10 -16 -12 -18 -10 -18 23 l0 36 -75 0 -75 0 0 95 0 95 30 0 c29 0 30 2 30
45 l0 45 -74 0 -75 0 -3 37 -3 37 -75 -82z"/>
</g>
</svg>
