<?xml version="1.0" standalone="no"?>
<!DOCTYPE svg PUBLIC "-//W3C//DTD SVG 20010904//EN"
 "http://www.w3.org/TR/2001/REC-SVG-20010904/DTD/svg10.dtd">
<svg version="1.0" xmlns="http://www.w3.org/2000/svg"
 width="57.000000pt" height="42.000000pt" viewBox="0 0 57.000000 42.000000"
 preserveAspectRatio="xMidYMid meet">
<metadata>
Created by potrace 1.13, written by Peter Selinger 2001-2015
</metadata>
<g transform="translate(0.000000,42.000000) scale(0.100000,-0.100000)"
fill="#000000" stroke="none">
<path d="M471 258 c-17 -21 -27 -26 -34 -19 -16 16 -42 14 -57 -4 -17 -21 -42
-19 -84 6 -19 11 -40 18 -45 15 -17 -11 -81 -15 -81 -6 0 5 -9 14 -21 20 -16
9 -24 8 -38 -4 -10 -9 -21 -13 -24 -9 -13 13 -7 -13 9 -35 18 -25 46 -29 64
-7 21 25 90 17 90 -11 0 -8 -11 -20 -25 -26 -21 -9 -29 -8 -47 8 -13 10 -7 -1
13 -25 51 -64 60 -68 107 -47 37 17 42 17 64 2 23 -15 26 -15 40 1 9 10 19 29
23 43 7 20 5 23 -6 14 -8 -7 -26 -12 -40 -12 -21 0 -25 4 -21 20 9 35 82 67
82 36 0 -13 38 19 52 45 15 30 5 27 -21 -5z"/>
</g>
</svg>
